<svg width="24" height="24" viewBox="0 0 24 24" fill="none" xmlns="http://www.w3.org/2000/svg">
<path fill-rule="evenodd" clip-rule="evenodd" d="M2.33482 7.875C1.79482 9.002 1.98482 10.321 2.36482 12.958L2.64282 14.895C3.12982 18.283 3.37382 19.976 4.54882 20.988C5.72382 22 7.44682 22 10.8938 22H13.1058C16.5528 22 18.2758 22 19.4508 20.988C20.6258 19.976 20.8698 18.283 21.3568 14.895L21.6358 12.958C22.0158 10.321 22.2058 9.002 21.6648 7.875C21.1248 6.748 19.9738 6.062 17.6728 4.692L16.2878 3.867C14.1998 2.622 13.1538 2 11.9998 2C10.8458 2 9.80082 2.622 7.71182 3.867L6.32682 4.692C4.02682 6.062 2.87582 6.748 2.33482 7.875ZM8.24982 18C8.24982 17.8011 8.32884 17.6103 8.46949 17.4697C8.61014 17.329 8.80091 17.25 8.99982 17.25H14.9998C15.1987 17.25 15.3895 17.329 15.5302 17.4697C15.6708 17.6103 15.7498 17.8011 15.7498 18C15.7498 18.1989 15.6708 18.3897 15.5302 18.5303C15.3895 18.671 15.1987 18.75 14.9998 18.75H8.99982C8.80091 18.75 8.61014 18.671 8.46949 18.5303C8.32884 18.3897 8.24982 18.1989 8.24982 18Z" fill="white"/>
</svg>
