<svg width="24" height="24" viewBox="0 0 24 24" fill="none" xmlns="http://www.w3.org/2000/svg">
<path opacity="0.6" d="M15 2H14C11.172 2 9.757 2 8.879 2.879C8 3.757 8 5.172 8 8L8 16C8 18.828 8 20.243 8.879 21.121C9.757 22 11.172 22 14 22H15C17.828 22 19.243 22 20.121 21.121C21 20.243 21 18.828 21 16L21 8C21 5.172 21 3.757 20.121 2.879C19.243 2 17.828 2 15 2Z" fill="white"/>
<path opacity="0.4" d="M8 8C8 6.462 8 5.343 8.141 4.5H8C5.643 4.5 4.464 4.5 3.732 5.232C3 5.964 3 7.143 3 9.5L3 14.5C3 16.857 3 18.035 3.732 18.768C4.464 19.5 5.643 19.5 8 19.5H8.141C8 18.657 8 17.538 8 16L8 11.25L8 8Z" fill="white"/>
<path fill-rule="evenodd" clip-rule="evenodd" d="M4.46983 11.4692C4.32938 11.6098 4.25049 11.8004 4.25049 11.9992C4.25049 12.1979 4.32938 12.3886 4.46983 12.5292L6.46983 14.5292C6.612 14.6617 6.80005 14.7338 6.99435 14.7304C7.18865 14.7269 7.37404 14.6482 7.51145 14.5108C7.64886 14.3734 7.72758 14.188 7.731 13.9937C7.73443 13.7994 7.66231 13.6114 7.52983 13.4692L6.80983 12.7492L13.9998 12.7492C14.1987 12.7492 14.3895 12.6702 14.5302 12.5295C14.6708 12.3889 14.7498 12.1981 14.7498 11.9992C14.7498 11.8003 14.6708 11.6095 14.5302 11.4688C14.3895 11.3282 14.1987 11.2492 13.9998 11.2492L6.80983 11.2492L7.52983 10.5292C7.60352 10.4605 7.66262 10.3777 7.70361 10.2857C7.7446 10.1937 7.76664 10.0944 7.76842 9.9937C7.7702 9.893 7.75167 9.79297 7.71395 9.69958C7.67623 9.60619 7.62009 9.52136 7.54887 9.45014C7.47765 9.37892 7.39281 9.32278 7.29943 9.28505C7.20604 9.24733 7.10601 9.22881 7.00531 9.23059C6.9046 9.23236 6.80529 9.2544 6.71329 9.2954C6.62129 9.33639 6.53849 9.39549 6.46983 9.46918L4.46983 11.4692Z" fill="white"/>
</svg>
