<svg width="50" height="50" viewBox="0 0 50 50" fill="none" xmlns="http://www.w3.org/2000/svg">
<path d="M13.3238 38.5938C15.5047 38.5938 17.2727 36.8156 17.2727 34.6221C17.2727 32.4286 15.5047 30.6504 13.3238 30.6504C11.143 30.6504 9.375 32.4286 9.375 34.6221C9.375 36.8156 11.143 38.5938 13.3238 38.5938Z" fill="#1355FF"/>
<path d="M23.1951 33.2956C24.649 33.2956 25.8276 32.1102 25.8276 30.6478C25.8276 29.1855 24.649 28 23.1951 28C21.7411 28 20.5625 29.1855 20.5625 30.6478C20.5625 32.1102 21.7411 33.2956 23.1951 33.2956Z" fill="#1355FF"/>
<path fill-rule="evenodd" clip-rule="evenodd" d="M21.8326 10.4602C19.3143 11.9225 18.448 15.1553 19.8978 17.6809L25.1506 26.8318C25.4496 27.3527 25.0737 28.002 24.4731 28.002H23.2114C21.7491 28.002 20.5636 29.1874 20.5636 30.6498C20.5636 32.1121 21.7491 33.2976 23.2114 33.2976H28.4098C28.6896 33.2976 28.9481 33.4473 29.0873 33.6899L30.4432 36.052C31.893 38.5775 35.1097 39.4394 37.6279 37.9771C40.1462 36.5147 41.0124 33.2819 39.5627 30.7564L29.0173 12.3853C27.5675 9.85971 24.3509 8.99784 21.8326 10.4602Z" fill="#1355FF"/>
</svg>
