<svg width="32" height="30" viewBox="0 0 32 30" fill="none" xmlns="http://www.w3.org/2000/svg">
<path d="M4.32384 29.5938C6.50472 29.5938 8.27267 27.8156 8.27267 25.6221C8.27267 23.4286 6.50472 21.6504 4.32384 21.6504C2.14295 21.6504 0.375 23.4286 0.375 25.6221C0.375 27.8156 2.14295 29.5938 4.32384 29.5938Z" fill="#1355FF"/>
<path d="M14.1951 24.2956C15.649 24.2956 16.8276 23.1102 16.8276 21.6478C16.8276 20.1855 15.649 19 14.1951 19C12.7411 19 11.5625 20.1855 11.5625 21.6478C11.5625 23.1102 12.7411 24.2956 14.1951 24.2956Z" fill="#1355FF"/>
<path fill-rule="evenodd" clip-rule="evenodd" d="M12.8326 1.46018C10.3143 2.92253 9.44805 6.15534 10.8978 8.68089L16.1506 17.8318C16.4496 18.3527 16.0737 19.002 15.4731 19.002H14.2114C12.7491 19.002 11.5636 20.1874 11.5636 21.6498C11.5636 23.1121 12.7491 24.2976 14.2114 24.2976H19.4098C19.6896 24.2976 19.9481 24.4473 20.0873 24.6899L21.4432 27.052C22.893 29.5775 26.1097 30.4394 28.6279 28.9771C31.1462 27.5147 32.0124 24.2819 30.5627 21.7564L20.0173 3.38526C18.5675 0.859714 15.3509 -0.00216067 12.8326 1.46018Z" fill="#1355FF"/>
</svg>
