<svg width="34" height="34" viewBox="0 0 34 34" fill="none" xmlns="http://www.w3.org/2000/svg">
<rect width="24" height="24" transform="translate(18.4497 0.0644531) rotate(50)" fill="#383839"/>
<path d="M22.3307 20.8794L23.099 11.828L14.0516 11.0128C13.9585 10.9918 13.8619 10.991 13.7684 11.0106C13.6749 11.0301 13.5867 11.0696 13.5098 11.1262C13.4329 11.1828 13.369 11.2552 13.3226 11.3387C13.2761 11.4221 13.2481 11.5146 13.2404 11.6098C13.2328 11.7049 13.2457 11.8007 13.2783 11.8905C13.3108 11.9802 13.3623 12.062 13.4292 12.1301C13.4961 12.1983 13.5769 12.2513 13.666 12.2855C13.7552 12.3197 13.8507 12.3344 13.946 12.3285L20.7247 12.95L10.9551 21.1476C10.8196 21.2613 10.7349 21.4241 10.7195 21.6002C10.7041 21.7764 10.7593 21.9514 10.8729 22.0869C10.9866 22.2223 11.1494 22.3071 11.3255 22.3225C11.5016 22.3379 11.6767 22.2827 11.8121 22.169L21.5818 13.9714L21.0167 20.755C21.0019 20.9313 21.0577 21.1062 21.1719 21.2414C21.2861 21.3765 21.4493 21.4607 21.6256 21.4755C21.8019 21.4903 21.9768 21.4344 22.1119 21.3203C22.2471 21.2061 22.3313 21.0429 22.3461 20.8666L22.3307 20.8794Z" fill="white"/>
</svg>
