<svg width="24" height="25" viewBox="0 0 24 25" fill="none" xmlns="http://www.w3.org/2000/svg">
<path d="M22.5004 5.75V11.75C22.5004 11.9489 22.4214 12.1397 22.2807 12.2803C22.1401 12.421 21.9493 12.5 21.7504 12.5C21.5515 12.5 21.3607 12.421 21.2201 12.2803C21.0794 12.1397 21.0004 11.9489 21.0004 11.75V7.56031L13.281 15.2806C13.2114 15.3504 13.1287 15.4057 13.0376 15.4434C12.9466 15.4812 12.849 15.5006 12.7504 15.5006C12.6519 15.5006 12.5543 15.4812 12.4632 15.4434C12.3722 15.4057 12.2894 15.3504 12.2198 15.2806L9.00042 12.0603L2.78104 18.2806C2.64031 18.4214 2.44944 18.5004 2.25042 18.5004C2.05139 18.5004 1.86052 18.4214 1.71979 18.2806C1.57906 18.1399 1.5 17.949 1.5 17.75C1.5 17.551 1.57906 17.3601 1.71979 17.2194L8.46979 10.4694C8.53945 10.3996 8.62216 10.3443 8.71321 10.3066C8.80426 10.2688 8.90186 10.2494 9.00042 10.2494C9.09898 10.2494 9.19657 10.2688 9.28762 10.3066C9.37867 10.3443 9.46139 10.3996 9.53104 10.4694L12.7504 13.6897L19.9401 6.5H15.7504C15.5515 6.5 15.3607 6.42098 15.2201 6.28033C15.0794 6.13968 15.0004 5.94891 15.0004 5.75C15.0004 5.55109 15.0794 5.36032 15.2201 5.21967C15.3607 5.07902 15.5515 5 15.7504 5H21.7504C21.9493 5 22.1401 5.07902 22.2807 5.21967C22.4214 5.36032 22.5004 5.55109 22.5004 5.75Z" fill="#27B262"/>
</svg>
